<svg width="106" height="116" viewBox="0 0 106 116" fill="none" xmlns="http://www.w3.org/2000/svg">
<path d="M53.0033 88.9811H52.9986C52.8594 88.9811 52.7221 88.9447 52.6016 88.8748C52.5848 88.8655 52.5698 88.8553 52.5558 88.8459L26.4456 73.8066C26.4307 73.7991 26.4138 73.7907 26.3952 73.7805C26.2793 73.7134 26.1784 73.6128 26.1084 73.4925C26.0374 73.3714 26 73.2335 26 73.0937C26 73.0751 26 73.0574 26.0019 73.0415V42.96C26.0009 42.9442 26 42.9265 26 42.9078C26 42.768 26.0374 42.6311 26.1074 42.5099C26.1775 42.3888 26.2784 42.2872 26.3989 42.2182C26.412 42.2108 26.4269 42.2033 26.4419 42.1959L52.5567 27.1537C52.5698 27.1444 52.5857 27.1342 52.6025 27.1248C52.7212 27.0568 52.8585 27.0195 52.9986 27.0195C53.0005 27.0195 53.0023 27.0195 53.0033 27.0195C53.1434 27.0195 53.2807 27.0559 53.4012 27.1258C53.4171 27.1351 53.4321 27.1444 53.4451 27.1537L79.5553 42.1931C79.5694 42.1996 79.5852 42.208 79.6011 42.2173C79.7226 42.2872 79.8234 42.3878 79.8926 42.509C79.9626 42.6301 80 42.7671 80 42.9069C80 42.9255 80 42.9432 79.9981 42.9591V73.0397C79.9991 73.0555 80 73.0732 80 73.0919C80 73.2316 79.9626 73.3695 79.8916 73.4907C79.8216 73.6118 79.7216 73.7125 79.6002 73.7814C79.5871 73.7889 79.5721 73.7963 79.5572 73.8038L53.4433 88.8459C53.4293 88.8553 53.4124 88.8665 53.3947 88.8767C53.2789 88.9438 53.1415 88.9801 53.0023 88.9801L53.0033 88.9811ZM53.8057 74.4869L53.7973 86.8145L64.5114 80.6437L53.8048 74.4869H53.8057ZM41.4896 80.6437L52.2036 86.8145L52.1952 74.4869L41.4886 80.6437H41.4896ZM66.9075 66.9387L66.8991 79.2664L77.6132 73.0956L66.9066 66.9387H66.9075ZM28.3878 73.0956L39.1018 79.2664L39.0934 66.9387L28.3878 73.0956ZM54.611 73.0965L65.3064 79.2654L65.298 66.9397L54.611 73.0965ZM40.7039 66.9397L40.6955 79.2654L51.3909 73.0965L40.7039 66.9397ZM67.7119 65.5484L78.41 71.7192V59.3776L67.7119 65.5484ZM27.5909 59.3776V71.7192L38.2891 65.5484L27.5909 59.3776ZM53.8057 59.3916V71.7043L64.4918 65.5484L53.8057 59.3925V59.3916ZM41.5092 65.5475L52.1952 71.7034V59.3906L41.5092 65.5465V65.5475ZM66.9075 51.8425V64.1562L77.6104 57.9994L66.9075 51.8425ZM28.3906 58.0003L39.0934 64.1571V51.8435L28.3906 58.0003ZM54.611 58.0003L65.297 64.1562V51.8435L54.611 57.9994V58.0003ZM40.7039 51.8444V64.1571L51.39 58.0012L40.7039 51.8453V51.8444ZM67.7119 50.4522L78.41 56.623V44.2814L67.7119 50.4522ZM27.5909 44.2814V56.623L38.2891 50.4522L27.5909 44.2814ZM53.8057 44.2954V56.6081L64.4918 50.4522L53.8057 44.2963V44.2954ZM41.5092 50.4513L52.1952 56.6072V44.2954L41.5092 50.4513ZM66.8991 36.7342L66.9075 49.0619L77.6141 42.905L66.9001 36.7342H66.8991ZM28.3878 42.905L39.0943 49.0619L39.1027 36.7342L28.3878 42.905ZM54.611 42.9041L65.298 49.0609L65.3064 36.7352L54.611 42.9041ZM40.6955 36.7352L40.7039 49.0609L51.3909 42.9041L40.6955 36.7352ZM53.7973 29.1861L53.8057 41.5138L64.5123 35.3569L53.7973 29.1861ZM41.4896 35.3569L52.1961 41.5138L52.2046 29.1861L41.4905 35.3569H41.4896Z" fill="white"/>
</svg>
