<svg width="174" height="116" viewBox="0 0 174 116" fill="none" xmlns="http://www.w3.org/2000/svg">
<path d="M101.309 53.8121H98.7978C98.7262 53.4002 98.5942 53.0354 98.4017 52.7176C98.2092 52.3953 97.9697 52.1223 97.6832 51.8984C97.3967 51.6746 97.07 51.5068 96.7029 51.3949C96.3403 51.2785 95.9487 51.2203 95.5279 51.2203C94.7803 51.2203 94.1179 51.4083 93.5404 51.7843C92.963 52.1558 92.5109 52.7019 92.1841 53.4226C91.8573 54.1388 91.6939 55.0139 91.6939 56.048C91.6939 57.0999 91.8573 57.9862 92.1841 58.7069C92.5153 59.4231 92.9674 59.9647 93.5404 60.3318C94.1179 60.6944 94.7781 60.8757 95.5212 60.8757C95.933 60.8757 96.318 60.8219 96.6761 60.7145C97.0386 60.6026 97.3632 60.4392 97.6497 60.2244C97.9406 60.0095 98.1846 59.7454 98.3815 59.4321C98.583 59.1187 98.7217 58.7606 98.7978 58.3577L101.309 58.3712C101.215 59.0247 101.011 59.638 100.698 60.2109C100.389 60.7839 99.984 61.2897 99.4827 61.7284C98.9814 62.1626 98.395 62.5028 97.7235 62.749C97.0521 62.9907 96.3068 63.1116 95.4876 63.1116C94.279 63.1116 93.2002 62.8318 92.2512 62.2723C91.3023 61.7127 90.5547 60.9048 90.0086 59.8483C89.4625 58.7919 89.1895 57.5251 89.1895 56.048C89.1895 54.5663 89.4647 53.2995 90.0153 52.2476C90.5659 51.1912 91.3157 50.3832 92.2647 49.8237C93.2136 49.2641 94.288 48.9844 95.4876 48.9844C96.253 48.9844 96.9648 49.0918 97.6228 49.3067C98.2808 49.5215 98.8672 49.8371 99.382 50.2534C99.8968 50.6652 100.32 51.171 100.651 51.7709C100.987 52.3662 101.206 53.0466 101.309 53.8121Z" fill="black"/>
<path d="M107.603 63.125C106.596 63.125 105.723 62.9034 104.985 62.4603C104.246 62.0171 103.673 61.3971 103.266 60.6004C102.863 59.8036 102.662 58.8725 102.662 57.8072C102.662 56.7418 102.863 55.8085 103.266 55.0072C103.673 54.206 104.246 53.5838 104.985 53.1406C105.723 52.6975 106.596 52.4759 107.603 52.4759C108.611 52.4759 109.483 52.6975 110.222 53.1406C110.961 53.5838 111.531 54.206 111.934 55.0072C112.342 55.8085 112.545 56.7418 112.545 57.8072C112.545 58.8725 112.342 59.8036 111.934 60.6004C111.531 61.3971 110.961 62.0171 110.222 62.4603C109.483 62.9034 108.611 63.125 107.603 63.125ZM107.617 61.1778C108.163 61.1778 108.619 61.0279 108.987 60.7279C109.354 60.4236 109.627 60.0162 109.806 59.5059C109.989 58.9956 110.081 58.4271 110.081 57.8004C110.081 57.1693 109.989 56.5986 109.806 56.0883C109.627 55.5735 109.354 55.1639 108.987 54.8595C108.619 54.5551 108.163 54.4029 107.617 54.4029C107.057 54.4029 106.592 54.5551 106.22 54.8595C105.853 55.1639 105.578 55.5735 105.394 56.0883C105.215 56.5986 105.126 57.1693 105.126 57.8004C105.126 58.4271 105.215 58.9956 105.394 59.5059C105.578 60.0162 105.853 60.4236 106.22 60.7279C106.592 61.0279 107.057 61.1778 107.617 61.1778Z" fill="black"/>
<path d="M118.057 63.1049C117.247 63.1049 116.522 62.8967 115.882 62.4804C115.242 62.0641 114.736 61.4598 114.364 60.6675C113.993 59.8752 113.807 58.9128 113.807 57.7803C113.807 56.6344 113.995 55.6675 114.371 54.8797C114.752 54.0874 115.264 53.4898 115.909 53.0869C116.553 52.6796 117.272 52.4759 118.064 52.4759C118.668 52.4759 119.165 52.5788 119.555 52.7848C119.944 52.9862 120.253 53.2301 120.481 53.5166C120.709 53.7986 120.886 54.065 121.012 54.3156H121.112V49.1724H123.55V62.9236H121.159V61.2987H121.012C120.886 61.5493 120.705 61.8157 120.468 62.0977C120.231 62.3752 119.917 62.6125 119.528 62.8094C119.138 63.0064 118.648 63.1049 118.057 63.1049ZM118.735 61.1107C119.25 61.1107 119.689 60.9719 120.051 60.6944C120.414 60.4124 120.689 60.0207 120.877 59.5193C121.065 59.018 121.159 58.4338 121.159 57.7669C121.159 57.0999 121.065 56.5202 120.877 56.0278C120.694 55.5354 120.421 55.1527 120.058 54.8797C119.7 54.6066 119.259 54.4701 118.735 54.4701C118.194 54.4701 117.742 54.6111 117.379 54.8931C117.017 55.1751 116.743 55.5645 116.56 56.0614C116.376 56.5583 116.285 57.1268 116.285 57.7669C116.285 58.4115 116.376 58.9867 116.56 59.4925C116.748 59.9938 117.023 60.39 117.386 60.6809C117.753 60.9674 118.203 61.1107 118.735 61.1107Z" fill="black"/>
<path d="M138.357 52.6102L140.439 56.4173L142.554 52.6102H145.126L142.017 57.7669L145.179 62.9236H142.621L140.439 59.2105L138.277 62.9236H135.699L138.841 57.7669L135.779 52.6102H138.357Z" fill="black"/>
<path fill-rule="evenodd" clip-rule="evenodd" d="M130.327 63.125C129.293 63.125 128.4 62.9101 127.648 62.4804C126.901 62.0462 126.326 61.433 125.923 60.6407C125.52 59.8439 125.318 58.9061 125.318 57.8273C125.318 56.7664 125.52 55.8353 125.923 55.0341C126.33 54.2284 126.899 53.6017 127.628 53.154C128.358 52.7019 129.215 52.4759 130.2 52.4759C130.836 52.4759 131.435 52.5788 131.999 52.7848C132.568 52.9862 133.069 53.2995 133.503 53.7248C133.942 54.15 134.287 54.6917 134.537 55.3497C134.788 56.0032 134.913 56.7821 134.913 57.6863V58.4316H127.729C127.736 59.0056 127.846 59.5003 128.058 59.9155C128.277 60.3407 128.584 60.6675 128.978 60.8958C129.372 61.1196 129.833 61.2315 130.361 61.2315C130.715 61.2315 131.035 61.1823 131.321 61.0838C131.608 60.9809 131.856 60.8309 132.066 60.6339C132.277 60.437 132.436 60.193 132.543 59.9021L134.813 60.1572C134.669 60.757 134.396 61.2808 133.994 61.7284C133.595 62.1715 133.085 62.5162 132.463 62.7624C131.84 63.0041 131.129 63.125 130.327 63.125ZM132.281 55.5511C132.478 55.9137 132.579 56.3277 132.583 56.7933H127.734C127.757 56.3892 127.861 56.0154 128.045 55.672C128.255 55.2825 128.548 54.9692 128.924 54.7319C129.3 54.4902 129.737 54.3694 130.233 54.3694C130.699 54.3694 131.106 54.4746 131.455 54.6849C131.809 54.8953 132.084 55.184 132.281 55.5511Z" fill="black"/>
<path d="M53.0029 88.9757H52.9982C52.859 88.9757 52.7217 88.9393 52.6012 88.8694C52.5844 88.8601 52.5695 88.8499 52.5554 88.8406L26.4475 73.8025C26.4326 73.7951 26.4158 73.7867 26.3971 73.7764C26.2812 73.7093 26.1804 73.6087 26.1103 73.4885C26.0393 73.3674 26.002 73.2295 26.002 73.0897C26.002 73.0711 26.002 73.0534 26.0038 73.0375V42.9586C26.0029 42.9428 26.002 42.9251 26.002 42.9064C26.002 42.7667 26.0393 42.6297 26.1094 42.5086C26.1794 42.3874 26.2803 42.2859 26.4008 42.2169C26.4139 42.2095 26.4288 42.202 26.4438 42.1946L52.5564 27.1537C52.5694 27.1444 52.5853 27.1341 52.6021 27.1248C52.7208 27.0568 52.8581 27.0195 52.9982 27.0195C53.0001 27.0195 53.0019 27.0195 53.0029 27.0195C53.143 27.0195 53.2803 27.0559 53.4008 27.1258C53.4167 27.1351 53.4316 27.1444 53.4447 27.1537L79.5526 42.1918C79.5666 42.1983 79.5825 42.2067 79.5984 42.216C79.7198 42.2859 79.8207 42.3865 79.8898 42.5076C79.9599 42.6288 79.9972 42.7657 79.9972 42.9055C79.9972 42.9241 79.9972 42.9418 79.9954 42.9577V73.0357C79.9963 73.0515 79.9972 73.0692 79.9972 73.0878C79.9972 73.2276 79.9599 73.3655 79.8889 73.4866C79.8188 73.6078 79.7189 73.7084 79.5975 73.7774C79.5844 73.7848 79.5694 73.7923 79.5545 73.7997L53.4428 88.8406C53.4288 88.8499 53.412 88.8611 53.3943 88.8713C53.2784 88.9384 53.1411 88.9747 53.0019 88.9747L53.0029 88.9757ZM53.8053 74.4827L53.7968 86.8093L64.51 80.639L53.8043 74.4827H53.8053ZM41.4902 80.639L52.2033 86.8093L52.1949 74.4827L41.4892 80.639H41.4902ZM66.9059 66.9353L66.8975 79.2618L77.6106 73.0916L66.905 66.9353H66.9059ZM28.3895 73.0916L39.1026 79.2618L39.0942 66.9353L28.3895 73.0916ZM54.6104 73.0925L65.3049 79.2609L65.2965 66.9362L54.6104 73.0925ZM40.7046 66.9362L40.6962 79.2609L51.3906 73.0925L40.7046 66.9362ZM67.7102 65.545L78.4074 71.7153V59.3748L67.7102 65.545ZM27.5927 59.3748V71.7153L38.29 65.545L27.5927 59.3748ZM53.8053 59.3888V71.7004L64.4904 65.545L53.8053 59.3897V59.3888ZM41.5098 65.5441L52.1949 71.6995V59.3878L41.5098 65.5432V65.5441ZM66.9059 51.8404V64.153L77.6078 57.9967L66.9059 51.8404ZM28.3923 57.9976L39.0942 64.1539V51.8413L28.3923 57.9976ZM54.6104 57.9976L65.2955 64.153V51.8413L54.6104 57.9967V57.9976ZM40.7046 51.8422V64.1539L51.3897 57.9985L40.7046 51.8432V51.8422ZM67.7102 50.4502L78.4074 56.6204V44.2799L67.7102 50.4502ZM27.5927 44.2799V56.6204L38.29 50.4502L27.5927 44.2799ZM53.8053 44.2939V56.6055L64.4904 50.4502L53.8053 44.2948V44.2939ZM41.5098 50.4492L52.1949 56.6046V44.2939L41.5098 50.4492ZM66.8975 36.7334L66.9059 49.0599L77.6116 42.9036L66.8984 36.7334H66.8975ZM28.3895 42.9036L39.0951 49.0599L39.1036 36.7334L28.3895 42.9036ZM54.6104 42.9027L65.2965 49.059L65.3049 36.7343L54.6104 42.9027ZM40.6962 36.7343L40.7046 49.059L51.3906 42.9027L40.6962 36.7343ZM53.7968 29.1859L53.8053 41.5125L64.5109 35.3562L53.7968 29.1859ZM41.4902 35.3562L52.1958 41.5125L52.2042 29.1859L41.4911 35.3562H41.4902Z" fill="black"/>
</svg>
