<svg width="106" height="138" viewBox="0 0 106 138" fill="none" xmlns="http://www.w3.org/2000/svg">
<path d="M53.0029 88.9757H52.9982C52.859 88.9757 52.7217 88.9393 52.6012 88.8694C52.5844 88.8601 52.5695 88.8499 52.5554 88.8406L26.4475 73.8025C26.4326 73.7951 26.4158 73.7867 26.3971 73.7764C26.2812 73.7093 26.1804 73.6087 26.1103 73.4885C26.0393 73.3674 26.002 73.2295 26.002 73.0897C26.002 73.0711 26.002 73.0534 26.0038 73.0375V42.9586C26.0029 42.9428 26.002 42.9251 26.002 42.9064C26.002 42.7667 26.0393 42.6297 26.1094 42.5086C26.1794 42.3874 26.2803 42.2859 26.4008 42.2169C26.4139 42.2095 26.4288 42.202 26.4438 42.1946L52.5564 27.1537C52.5694 27.1444 52.5853 27.1341 52.6021 27.1248C52.7208 27.0568 52.8581 27.0195 52.9982 27.0195C53.0001 27.0195 53.0019 27.0195 53.0029 27.0195C53.143 27.0195 53.2803 27.0559 53.4008 27.1258C53.4167 27.1351 53.4316 27.1444 53.4447 27.1537L79.5526 42.1918C79.5666 42.1983 79.5825 42.2067 79.5984 42.216C79.7198 42.2859 79.8207 42.3865 79.8898 42.5076C79.9599 42.6288 79.9972 42.7657 79.9972 42.9055C79.9972 42.9241 79.9972 42.9418 79.9954 42.9577V73.0357C79.9963 73.0515 79.9972 73.0692 79.9972 73.0878C79.9972 73.2276 79.9599 73.3655 79.8889 73.4866C79.8188 73.6078 79.7189 73.7084 79.5975 73.7774C79.5844 73.7848 79.5694 73.7923 79.5545 73.7997L53.4428 88.8406C53.4288 88.8499 53.412 88.8611 53.3943 88.8713C53.2784 88.9384 53.1411 88.9747 53.0019 88.9747L53.0029 88.9757ZM53.8053 74.4827L53.7968 86.8093L64.51 80.639L53.8043 74.4827H53.8053ZM41.4902 80.639L52.2033 86.8093L52.1949 74.4827L41.4892 80.639H41.4902ZM66.9059 66.9353L66.8975 79.2618L77.6106 73.0916L66.905 66.9353H66.9059ZM28.3895 73.0916L39.1026 79.2618L39.0942 66.9353L28.3895 73.0916ZM54.6104 73.0925L65.3049 79.2609L65.2965 66.9362L54.6104 73.0925ZM40.7046 66.9362L40.6962 79.2609L51.3906 73.0925L40.7046 66.9362ZM67.7102 65.545L78.4074 71.7153V59.3748L67.7102 65.545ZM27.5927 59.3748V71.7153L38.29 65.545L27.5927 59.3748ZM53.8053 59.3888V71.7004L64.4904 65.545L53.8053 59.3897V59.3888ZM41.5098 65.5441L52.1949 71.6995V59.3878L41.5098 65.5432V65.5441ZM66.9059 51.8404V64.153L77.6078 57.9967L66.9059 51.8404ZM28.3923 57.9976L39.0942 64.1539V51.8413L28.3923 57.9976ZM54.6104 57.9976L65.2955 64.153V51.8413L54.6104 57.9967V57.9976ZM40.7046 51.8422V64.1539L51.3897 57.9985L40.7046 51.8432V51.8422ZM67.7102 50.4502L78.4074 56.6204V44.2799L67.7102 50.4502ZM27.5927 44.2799V56.6204L38.29 50.4502L27.5927 44.2799ZM53.8053 44.2939V56.6055L64.4904 50.4502L53.8053 44.2948V44.2939ZM41.5098 50.4492L52.1949 56.6046V44.2939L41.5098 50.4492ZM66.8975 36.7334L66.9059 49.0599L77.6116 42.9036L66.8984 36.7334H66.8975ZM28.3895 42.9036L39.0951 49.0599L39.1036 36.7334L28.3895 42.9036ZM54.6104 42.9027L65.2965 49.059L65.3049 36.7343L54.6104 42.9027ZM40.6962 36.7343L40.7046 49.059L51.3906 42.9027L40.6962 36.7343ZM53.7968 29.1859L53.8053 41.5125L64.5109 35.3562L53.7968 29.1859ZM41.4902 35.3562L52.1958 41.5125L52.2042 29.1859L41.4911 35.3562H41.4902Z" fill="black"/>
<path d="M37.1636 102.078H34.6586C34.5872 101.666 34.4555 101.301 34.2635 100.983C34.0715 100.661 33.8326 100.388 33.5468 100.164C33.261 99.9403 32.9351 99.7724 32.5689 99.6605C32.2073 99.5441 31.8166 99.4859 31.3969 99.4859C30.6512 99.4859 29.9903 99.6739 29.4143 100.05C28.8383 100.421 28.3873 100.968 28.0614 101.688C27.7354 102.404 27.5725 103.28 27.5725 104.314C27.5725 105.366 27.7354 106.252 28.0614 106.973C28.3918 107.689 28.8428 108.23 29.4143 108.597C29.9903 108.96 30.6489 109.141 31.3902 109.141C31.8009 109.141 32.1849 109.088 32.5422 108.98C32.9038 108.868 33.2276 108.705 33.5133 108.49C33.8036 108.275 34.0469 108.011 34.2434 107.698C34.4443 107.384 34.5827 107.026 34.6586 106.623L37.1636 106.637C37.0698 107.29 36.8666 107.904 36.5541 108.477C36.246 109.05 35.8419 109.555 35.3418 109.994C34.8417 110.428 34.2568 110.768 33.587 111.015C32.9172 111.256 32.1738 111.377 31.3567 111.377C30.1511 111.377 29.075 111.097 28.1284 110.538C27.1818 109.978 26.4361 109.17 25.8913 108.114C25.3466 107.058 25.0742 105.791 25.0742 104.314C25.0742 102.832 25.3488 101.565 25.898 100.513C26.4472 99.4568 27.1952 98.6488 28.1418 98.0893C29.0884 97.5298 30.16 97.25 31.3567 97.25C32.1202 97.25 32.8302 97.3574 33.4865 97.5723C34.1429 97.7872 34.7278 98.1027 35.2413 98.519C35.7548 98.9308 36.1768 99.4367 36.5072 100.036C36.8421 100.632 37.0609 101.312 37.1636 102.078Z" fill="black"/>
<path d="M43.4422 111.391C42.4375 111.391 41.5668 111.169 40.8301 110.726C40.0933 110.283 39.5218 109.663 39.1155 108.866C38.7136 108.069 38.5127 107.138 38.5127 106.073C38.5127 105.007 38.7136 104.074 39.1155 103.273C39.5218 102.472 40.0933 101.849 40.8301 101.406C41.5668 100.963 42.4375 100.742 43.4422 100.742C44.4469 100.742 45.3176 100.963 46.0543 101.406C46.791 101.849 47.3604 102.472 47.7622 103.273C48.1685 104.074 48.3717 105.007 48.3717 106.073C48.3717 107.138 48.1685 108.069 47.7622 108.866C47.3604 109.663 46.791 110.283 46.0543 110.726C45.3176 111.169 44.4469 111.391 43.4422 111.391ZM43.4556 109.443C44.0003 109.443 44.4558 109.293 44.8219 108.994C45.1881 108.689 45.4604 108.282 45.639 107.772C45.8221 107.261 45.9137 106.693 45.9137 106.066C45.9137 105.435 45.8221 104.864 45.639 104.354C45.4604 103.839 45.1881 103.43 44.8219 103.125C44.4558 102.821 44.0003 102.669 43.4556 102.669C42.8975 102.669 42.4331 102.821 42.0625 103.125C41.6963 103.43 41.4217 103.839 41.2387 104.354C41.0601 104.864 40.9707 105.435 40.9707 106.066C40.9707 106.693 41.0601 107.261 41.2387 107.772C41.4217 108.282 41.6963 108.689 42.0625 108.994C42.4331 109.293 42.8975 109.443 43.4556 109.443Z" fill="black"/>
<path d="M53.8701 111.37C53.0619 111.37 52.3385 111.162 51.7 110.746C51.0615 110.33 50.5569 109.725 50.1863 108.933C49.8157 108.141 49.6304 107.178 49.6304 106.046C49.6304 104.9 49.8179 103.933 50.193 103.145C50.5725 102.353 51.0838 101.755 51.7268 101.353C52.3698 100.945 53.0864 100.742 53.8768 100.742C54.4795 100.742 54.9752 100.844 55.3636 101.05C55.7521 101.252 56.0602 101.496 56.2879 101.782C56.5156 102.064 56.692 102.331 56.817 102.581H56.9175V97.438H59.3488V111.189H56.9644V109.564H56.817C56.692 109.815 56.5112 110.081 56.2745 110.363C56.0379 110.641 55.7253 110.878 55.3368 111.075C54.9484 111.272 54.4595 111.37 53.8701 111.37ZM54.5465 109.376C55.06 109.376 55.4976 109.238 55.8593 108.96C56.2209 108.678 56.4956 108.286 56.6831 107.785C56.8706 107.284 56.9644 106.699 56.9644 106.032C56.9644 105.366 56.8706 104.786 56.6831 104.293C56.5 103.801 56.2276 103.418 55.866 103.145C55.5088 102.872 55.0689 102.736 54.5465 102.736C54.0062 102.736 53.5553 102.877 53.1936 103.159C52.8319 103.441 52.5595 103.83 52.3765 104.327C52.1934 104.824 52.1019 105.392 52.1019 106.032C52.1019 106.677 52.1934 107.252 52.3765 107.758C52.564 108.259 52.8386 108.656 53.2003 108.947C53.5664 109.233 54.0152 109.376 54.5465 109.376Z" fill="black"/>
<path d="M74.1196 100.876L76.1959 104.683L78.3057 100.876H80.8709L77.7699 106.032L80.9245 111.189H78.3727L76.1959 107.476L74.0393 111.189H71.4673L74.6019 106.032L71.5477 100.876H74.1196Z" fill="black"/>
<path fill-rule="evenodd" clip-rule="evenodd" d="M66.1096 111.391C65.0782 111.391 64.1874 111.176 63.4373 110.746C62.6916 110.312 62.1178 109.699 61.7159 108.906C61.3141 108.109 61.1132 107.172 61.1132 106.093C61.1132 105.032 61.3141 104.101 61.7159 103.3C62.1223 102.494 62.6893 101.867 63.4172 101.42C64.145 100.968 65.0001 100.742 65.9824 100.742C66.6164 100.742 67.2148 100.844 67.7774 101.05C68.3444 101.252 68.8445 101.565 69.2777 101.99C69.7152 102.416 70.059 102.957 70.3091 103.615C70.5591 104.269 70.6842 105.048 70.6842 105.952V106.697H63.518C63.5251 107.271 63.6344 107.766 63.8458 108.181C64.0646 108.606 64.3705 108.933 64.7634 109.161C65.1563 109.385 65.6162 109.497 66.1431 109.497C66.4959 109.497 66.8151 109.448 67.1009 109.349C67.3867 109.246 67.6345 109.097 67.8443 108.9C68.0542 108.703 68.2127 108.459 68.3199 108.168L70.5837 108.423C70.4408 109.023 70.1684 109.546 69.7666 109.994C69.3692 110.437 68.8602 110.782 68.2395 111.028C67.6189 111.27 66.9089 111.391 66.1096 111.391ZM68.0587 103.817C68.2551 104.179 68.3556 104.593 68.3601 105.059H63.5226C63.5459 104.655 63.6492 104.281 63.8324 103.938C64.0423 103.548 64.3347 103.235 64.7098 102.998C65.0849 102.756 65.5202 102.635 66.0159 102.635C66.4802 102.635 66.8866 102.74 67.2349 102.951C67.5876 103.161 67.8622 103.45 68.0587 103.817Z" fill="black"/>
</svg>
